<svg xmlns:xlink="http://www.w3.org/1999/xlink" width="86.039" xmlns="http://www.w3.org/2000/svg" height="86.423" id="screenshot-e75c842b-267f-807a-8003-878bd12261fe" viewBox="0 0 86.039 86.423" style="-webkit-print-color-adjust: exact;" fill="none" version="1.1"><g id="shape-e75c842b-267f-807a-8003-878bd12261fe" version="1.1" width="800px" height="800px" rx="0" ry="0" style="fill: rgb(0, 0, 0);"><g id="shape-e75c842b-267f-807a-8003-878bd122f07c"><g class="fills" id="fills-e75c842b-267f-807a-8003-878bd122f07c"><path rx="0" ry="0" d="M83.339,21.130L83.339,68.072C83.339,68.072,83.339,68.072,83.339,68.074C83.339,71.123,80.879,73.595,77.844,73.595C77.844,73.595,77.844,73.595,77.841,73.595L65.010,73.595L65.010,42.301L43.019,58.873L21.028,42.301L21.028,73.597L8.198,73.597C8.198,73.597,8.198,73.597,8.198,73.597C5.162,73.597,2.702,71.126,2.702,68.077C2.702,68.077,2.702,68.074,2.702,68.074L2.702,68.074L2.702,21.133C2.702,21.133,2.702,21.130,2.702,21.130C2.702,16.555,6.394,12.847,10.948,12.847C12.814,12.847,14.535,13.471,15.917,14.519L15.896,14.503L43.019,34.939L70.143,14.503C71.504,13.468,73.224,12.847,75.090,12.847C79.645,12.847,83.337,16.555,83.339,21.130ZL83.339,21.130ZZ" style="fill: rgb(2, 166, 118);"/></g></g></g></svg>