<svg xmlns:xlink="http://www.w3.org/1999/xlink" width="90.136" xmlns="http://www.w3.org/2000/svg" height="90.538" id="screenshot-e75c842b-267f-807a-8003-878bc9730a1c" viewBox="0 0 90.136 90.538" style="-webkit-print-color-adjust: exact;" fill="none" version="1.1"><g id="shape-e75c842b-267f-807a-8003-878bc9730a1c" width="800px" height="800px" rx="0" ry="0" style="fill: rgb(0, 0, 0);"><g id="shape-e75c842b-267f-807a-8003-878bc973a3f9"><g class="fills" id="fills-e75c842b-267f-807a-8003-878bc973a3f9"><path fill-rule="evenodd" clip-rule="evenodd" rx="0" ry="0" d="M45.068,67.904C57.513,67.904,67.602,57.770,67.602,45.269C67.602,32.768,57.513,22.635,45.068,22.635C32.623,22.635,22.534,32.768,22.534,45.269C22.534,57.770,32.623,67.904,45.068,67.904ZZM45.068,60.359C53.365,60.359,60.091,53.603,60.091,45.269C60.091,36.935,53.365,30.179,45.068,30.179C36.771,30.179,30.045,36.935,30.045,45.269C30.045,53.603,36.771,60.359,45.068,60.359ZZ" style="fill: rgb(2, 166, 118);"/></g></g><g id="shape-e75c842b-267f-807a-8003-878bc973a3fa"><g class="fills" id="fills-e75c842b-267f-807a-8003-878bc973a3fa"><path rx="0" ry="0" d="M67.602,18.862C65.528,18.862,63.846,20.551,63.846,22.635C63.846,24.718,65.528,26.407,67.602,26.407C69.676,26.407,71.358,24.718,71.358,22.635C71.358,20.551,69.676,18.862,67.602,18.862ZZ" style="fill: rgb(2, 166, 118);"/></g></g><g id="shape-e75c842b-267f-807a-8003-878bc97537a6"><g class="fills" id="fills-e75c842b-267f-807a-8003-878bc97537a6"><path fill-rule="evenodd" clip-rule="evenodd" rx="0" ry="0" d="M6.212,16.131C3.756,20.973,3.756,27.311,3.756,39.988L3.756,50.551C3.756,63.227,3.756,69.566,6.212,74.407C8.372,78.666,11.819,82.129,16.059,84.299C20.880,86.766,27.190,86.766,39.810,86.766L50.326,86.766C62.946,86.766,69.256,86.766,74.076,84.299C78.316,82.129,81.764,78.666,83.924,74.407C86.380,69.566,86.380,63.227,86.380,50.551L86.380,39.988C86.380,27.311,86.380,20.973,83.924,16.131C81.764,11.872,78.316,8.410,74.076,6.239C69.256,3.772,62.946,3.772,50.326,3.772L39.810,3.772C27.190,3.772,20.880,3.772,16.059,6.239C11.819,8.410,8.372,11.872,6.212,16.131ZZM50.326,11.317L39.810,11.317C33.376,11.317,29.002,11.323,25.621,11.601C22.328,11.871,20.644,12.361,19.470,12.962C16.643,14.409,14.345,16.717,12.904,19.556C12.306,20.736,11.818,22.428,11.549,25.736C11.273,29.132,11.267,33.525,11.267,39.988L11.267,50.551C11.267,57.014,11.273,61.407,11.549,64.803C11.818,68.111,12.306,69.802,12.904,70.982C14.345,73.821,16.643,76.130,19.470,77.576C20.644,78.178,22.328,78.668,25.621,78.938C29.002,79.215,33.376,79.221,39.810,79.221L50.326,79.221C56.760,79.221,61.134,79.215,64.514,78.938C67.808,78.668,69.492,78.178,70.667,77.576C73.493,76.130,75.791,73.821,77.231,70.982C77.830,69.802,78.318,68.111,78.587,64.803C78.863,61.407,78.869,57.014,78.869,50.551L78.869,39.988C78.869,33.525,78.863,29.132,78.587,25.736C78.318,22.428,77.830,20.736,77.231,19.556C75.791,16.717,73.493,14.409,70.667,12.962C69.492,12.361,67.808,11.871,64.514,11.601C61.134,11.323,56.760,11.317,50.326,11.317ZZ" style="fill: rgb(2, 166, 118);"/></g></g></g></svg>