<svg xmlns:xlink="http://www.w3.org/1999/xlink" width="423.993" xmlns="http://www.w3.org/2000/svg" height="165" id="screenshot-2df2a1fe-64b5-8064-8003-78397a2ffa02" viewBox="-32 -32 423.993 165" style="-webkit-print-color-adjust: exact;" fill="none" version="1.1"><g id="shape-2df2a1fe-64b5-8064-8003-78397a2ffa02" rx="0" ry="0" filter="url(#filter_rumext-id-1)" style="fill: rgb(0, 0, 0);"><defs><filter id="filter_rumext-id-1" x="-0.08035874324635765" y="-0.35064935064935066" width="1.1964324834910964" height="1.8571428571428572" filterUnits="objectBoundingBox" color-interpolation-filters="sRGB"><feFlood flood-opacity="0" result="BackgroundImageFix"/><feColorMatrix in="SourceAlpha" type="matrix" values="0 0 0 0 0 0 0 0 0 0 0 0 0 0 0 0 0 0 127 0"/><feOffset dx="4" dy="4"/><feGaussianBlur stdDeviation="2"/><feColorMatrix type="matrix" values="0 0 0 0 0 0 0 0 0 0 0 0 0 0 0 0 0 0 0.2 0"/><feBlend mode="normal" in2="BackgroundImageFix" result="filter_2df2a1fe-64b5-8064-8003-7839c8856cf4"/><feBlend mode="normal" in="SourceGraphic" in2="filter_2df2a1fe-64b5-8064-8003-7839c8856cf4" result="shape"/></filter><filter id="filter_shadow_rumext-id-1" x="-0.08035874324635765" y="-0.35064935064935066" width="1.1964324834910964" height="1.8571428571428572" filterUnits="objectBoundingBox" color-interpolation-filters="sRGB"><feFlood flood-opacity="0" result="BackgroundImageFix"/><feColorMatrix in="SourceAlpha" type="matrix" values="0 0 0 0 0 0 0 0 0 0 0 0 0 0 0 0 0 0 127 0"/><feOffset dx="4" dy="4"/><feGaussianBlur stdDeviation="2"/><feColorMatrix type="matrix" values="0 0 0 0 0 0 0 0 0 0 0 0 0 0 0 0 0 0 0.2 0"/><feBlend mode="normal" in2="BackgroundImageFix" result="filter_2df2a1fe-64b5-8064-8003-7839c8856cf4"/><feBlend mode="normal" in="SourceGraphic" in2="filter_2df2a1fe-64b5-8064-8003-7839c8856cf4" result="shape"/></filter></defs><g id="shape-2df2a1fe-64b5-8064-8003-78397a2ffa03"><g class="fills" id="fills-2df2a1fe-64b5-8064-8003-78397a2ffa03"><path class="cls-1" rx="0" ry="0" d="M13.290,17.215L13.290,64.262C13.290,65.407,13.517,66.212,13.979,66.674C14.441,67.130,15.277,67.364,16.502,67.364L19.593,67.364L19.593,77.000L12.487,77.000C8.130,77.000,4.958,76.008,2.978,74.018C0.990,72.028,0.000,69.240,0.000,65.642L0.000,15.834C0.000,12.236,0.990,9.448,2.978,7.458C4.965,5.468,8.137,4.476,12.487,4.476L20.162,4.476L20.162,14.112L16.495,14.112C15.270,14.112,14.434,14.327,13.972,14.742C13.517,15.164,13.283,15.988,13.290,17.215ZZM25.094,26.737L25.094,17.215C25.094,15.995,24.879,15.171,24.465,14.749C24.043,14.327,23.186,14.119,21.888,14.119L18.335,14.119L18.335,4.476L25.897,4.476C30.326,4.476,33.518,5.468,35.466,7.458C37.413,9.448,38.390,12.243,38.390,15.834L38.390,26.737L25.094,26.737ZZM25.094,64.262L25.094,45.325L38.390,45.325L38.390,65.635C38.390,69.234,37.413,72.021,35.466,74.011C33.518,76.002,30.326,76.993,25.897,76.993L18.563,76.993L18.563,67.357L21.888,67.357C23.186,67.357,24.043,67.130,24.465,66.667C24.886,66.205,25.094,65.407,25.094,64.262ZZM38.390,38.899L38.390,48.193L19.366,48.193L19.366,38.899L38.390,38.899ZZ" style="fill: rgb(255, 255, 255); fill-opacity: 1;"/></g></g><g id="shape-2df2a1fe-64b5-8064-8003-78397a2ffa04"><g class="fills" id="fills-2df2a1fe-64b5-8064-8003-78397a2ffa04"><path class="cls-1" rx="0" ry="0" d="M48.240,4.476L61.416,4.476L61.416,76.886L48.240,76.886L48.240,4.476ZZM75.743,40.507L61.991,40.507L76.425,4.476L90.638,4.476L75.743,40.507ZZM61.991,40.507L75.743,40.507L90.524,76.886L76.311,76.886L61.991,40.507ZZ" style="fill: rgb(255, 255, 255); fill-opacity: 1;"/></g></g><g id="shape-2df2a1fe-64b5-8064-8003-78397a2ffa05"><g class="fills" id="fills-2df2a1fe-64b5-8064-8003-78397a2ffa05"><path class="cls-1" rx="0" ry="0" d="M109.776,17.215L109.776,64.262C109.776,65.407,110.004,66.212,110.465,66.674C110.927,67.130,111.764,67.364,112.988,67.364L116.200,67.364L116.200,77.000L108.980,77.000C104.624,77.000,101.452,76.008,99.471,74.018C97.484,72.028,96.493,69.240,96.493,65.642L96.493,15.834C96.493,12.236,97.484,9.448,99.471,7.458C101.458,5.468,104.630,4.476,108.980,4.476L116.655,4.476L116.655,14.112L112.988,14.112C111.764,14.112,110.927,14.327,110.465,14.742C110.010,15.164,109.776,15.988,109.776,17.215ZZM121.580,28.459L121.580,17.215C121.580,15.995,121.366,15.171,120.951,14.749C120.530,14.327,119.673,14.119,118.375,14.119L114.822,14.119L114.822,4.476L122.383,4.476C126.739,4.476,129.905,5.468,131.892,7.458C133.879,9.448,134.870,12.243,134.870,15.834L134.870,28.459L121.580,28.459ZZM121.580,64.262L121.580,53.245L134.876,53.245L134.876,65.642C134.876,69.240,133.879,72.028,131.899,74.018C129.911,76.008,126.739,77.000,122.390,77.000L114.828,77.000L114.828,67.364L118.382,67.364C119.680,67.364,120.536,67.136,120.958,66.674C121.379,66.212,121.587,65.414,121.580,64.262ZZ" style="fill: rgb(255, 255, 255); fill-opacity: 1;"/></g></g><g id="shape-2df2a1fe-64b5-8064-8003-78397a2ffa06"><g class="fills" id="fills-2df2a1fe-64b5-8064-8003-78397a2ffa06"><path class="cls-1" rx="0" ry="0" d="M156.531,76.886L143.582,76.886L143.582,0.114L156.531,0.114L156.531,76.886ZZM179.797,76.886L166.735,76.886L166.735,33.739C166.735,32.513,166.521,31.695,166.106,31.273C165.685,30.851,164.828,30.643,163.530,30.643L160.090,30.643C158.866,30.643,157.969,30.931,157.400,31.501C156.832,32.070,156.544,33.049,156.544,34.429L156.544,37.760L155.968,37.760L155.968,29.035C155.968,26.207,156.731,24.083,158.257,22.669C159.783,21.255,161.884,20.545,164.561,20.545L168.000,20.545C172.129,20.545,175.127,21.543,176.994,23.527C178.867,25.517,179.804,28.311,179.804,31.903L179.797,76.886ZZ" style="fill: rgb(255, 255, 255); fill-opacity: 1;"/></g></g><g id="shape-2df2a1fe-64b5-8064-8003-78397a2ffa07"><g class="fills" id="fills-2df2a1fe-64b5-8064-8003-78397a2ffa07"><path class="cls-1" rx="0" ry="0" d="M201.451,50.377L188.503,50.377L188.503,31.903C188.503,28.305,189.440,25.517,191.314,23.527C193.187,21.537,196.145,20.545,200.193,20.545L203.747,20.545C206.423,20.545,208.504,21.255,209.990,22.669C211.482,24.083,212.225,26.207,212.225,29.035L212.225,37.639L211.649,37.639L211.649,34.429C211.649,33.056,211.382,32.077,210.846,31.501C210.311,30.925,209.394,30.643,208.096,30.643L204.657,30.643C203.432,30.643,202.596,30.858,202.134,31.273C201.672,31.695,201.445,32.519,201.445,33.739L201.451,50.377ZZM188.503,47.047L201.451,47.047L201.451,63.685C201.451,64.831,201.679,65.635,202.141,66.098C202.602,66.560,203.439,66.788,204.663,66.788L208.103,66.788C209.401,66.788,210.318,66.500,210.853,65.930C211.389,65.354,211.656,64.382,211.656,63.002L211.656,59.906L212.232,59.906L212.232,68.282C212.232,71.190,211.489,73.348,209.997,74.769C208.504,76.182,206.423,76.893,203.753,76.893L200.200,76.893C196.152,76.893,193.187,75.901,191.320,73.911C189.447,71.921,188.510,69.133,188.510,65.535L188.503,47.047ZZM224.718,76.886L211.656,76.886L211.656,29.377L211.884,28.800L211.884,20.538L224.718,20.538L224.718,76.886ZZ" style="fill: rgb(255, 255, 255); fill-opacity: 1;"/></g></g><g id="shape-2df2a1fe-64b5-8064-8003-78397a2ffa08"><g class="fills" id="fills-2df2a1fe-64b5-8064-8003-78397a2ffa08"><path class="cls-1" rx="0" ry="0" d="M234.113,11.365L234.113,0.000L247.751,0.000L247.751,11.365L234.113,11.365ZZM247.410,76.893L234.461,76.893L234.461,20.545L247.410,20.545L247.410,76.893ZZ" style="fill: rgb(255, 255, 255); fill-opacity: 1;"/></g></g><g id="shape-2df2a1fe-64b5-8064-8003-78397a2ffa09"><g class="fills" id="fills-2df2a1fe-64b5-8064-8003-78397a2ffa09"><path class="cls-1" rx="0" ry="0" d="M270.208,76.886L257.260,76.886L257.260,20.545L270.094,20.545L270.094,28.693L270.208,29.149L270.208,76.886ZZM293.468,76.886L280.406,76.886L280.406,33.739C280.406,32.513,280.192,31.695,279.777,31.273C279.355,30.851,278.499,30.643,277.201,30.643L273.761,30.643C272.537,30.643,271.640,30.931,271.071,31.501C270.502,32.070,270.215,33.049,270.215,34.429L270.215,37.987L269.639,37.987L269.639,29.035C269.639,26.207,270.402,24.083,271.928,22.669C273.453,21.255,275.555,20.545,278.231,20.545L281.671,20.545C285.799,20.545,288.791,21.543,290.664,23.527C292.538,25.517,293.475,28.311,293.475,31.903L293.468,76.886ZZ" style="fill: rgb(255, 255, 255); fill-opacity: 1;"/></g></g><g id="shape-2df2a1fe-64b5-8064-8003-78397a2ffa0a"><g class="fills" id="fills-2df2a1fe-64b5-8064-8003-78397a2ffa0a"><path class="cls-1" rx="0" ry="0" d="M323.380,64.496L323.380,56.576C323.380,55.356,323.152,54.532,322.690,54.110C322.235,53.688,321.352,53.480,320.054,53.480L313.864,53.480C309.508,53.480,306.376,52.502,304.469,50.552C302.562,48.602,301.605,45.827,301.605,42.229L301.605,31.903C301.605,28.305,302.582,25.517,304.529,23.527C306.477,21.537,309.668,20.545,314.098,20.545L323.152,20.545C327.508,20.545,330.660,21.543,332.607,23.527C334.555,25.517,335.532,28.311,335.532,31.903L335.532,37.183L323.038,37.183L323.038,32.935C323.038,31.709,322.824,30.891,322.409,30.469C321.988,30.047,321.131,29.839,319.833,29.839L317.544,29.839C316.246,29.839,315.370,30.054,314.908,30.469C314.446,30.891,314.219,31.715,314.219,32.935L314.219,41.197C314.219,42.423,314.446,43.248,314.908,43.663C315.363,44.085,316.246,44.293,317.544,44.293L323.734,44.293C328.090,44.293,331.222,45.271,333.129,47.221C335.036,49.171,335.993,51.945,335.993,55.544L335.993,65.528C335.993,69.126,335.016,71.914,333.069,73.904C331.122,75.894,327.970,76.886,323.614,76.886L314.333,76.886C309.903,76.886,306.711,75.894,304.763,73.904C302.816,71.914,301.839,69.126,301.839,65.528L301.839,60.362L314.560,60.362L314.560,64.496C314.560,65.722,314.788,66.547,315.249,66.962C315.704,67.384,316.547,67.592,317.772,67.592L320.061,67.592C321.359,67.592,322.235,67.384,322.697,66.962C323.159,66.540,323.386,65.722,323.380,64.496ZZ" style="fill: rgb(255, 255, 255); fill-opacity: 1;"/></g></g></g></svg>