<svg xmlns:xlink="http://www.w3.org/1999/xlink" width="106.524" xmlns="http://www.w3.org/2000/svg" height="107" id="screenshot-e75c842b-267f-807a-8003-878bc1e554eb" viewBox="0 0 106.524 107" style="-webkit-print-color-adjust: exact;" fill="none" version="1.1"><g id="shape-e75c842b-267f-807a-8003-878bc1e554eb" width="800px" height="800px" rx="0" ry="0" style="fill: rgb(0, 0, 0);"><g id="shape-e75c842b-267f-807a-8003-878bc1e643a4"><g class="fills" id="fills-e75c842b-267f-807a-8003-878bc1e643a4"><path rx="0" ry="0" d="M91.920,16.293C91.920,16.293,100.542,12.916,99.824,21.118C99.584,24.495,97.429,36.315,95.752,49.100L90.004,86.973C90.004,86.973,89.525,92.521,85.214,93.486C80.902,94.451,74.436,90.109,73.238,89.144C72.280,88.420,55.275,77.565,49.287,72.258C47.610,70.811,45.694,67.916,49.526,64.539L74.675,40.416C77.549,37.521,80.423,30.767,68.448,38.969L34.916,61.885C34.916,61.885,31.084,64.297,23.898,62.126L8.330,57.302C8.330,57.302,2.581,53.683,12.402,50.065C36.353,38.727,65.813,27.148,91.920,16.293ZZ" style="fill: rgb(2, 166, 118);"/></g></g></g></svg>